<svg width="24" height="24" viewBox="0 0 24 24" fill="none" xmlns="http://www.w3.org/2000/svg">
<path fill-rule="evenodd" clip-rule="evenodd" d="M11.5 6H10V5H12H14V6H12.5V7.02054C13.8034 7.12807 14.9887 7.6522 15.9223 8.45948L15.9402 8.44158L16.6589 7.72288L17.3661 7.01577L17.5195 7.16926L18.0732 7.72288L18.2266 7.87636L17.5195 8.58347L16.8008 9.30217L16.7584 9.34465C17.537 10.3568 18 11.6243 18 13C18 16.3137 15.3137 19 12 19C8.68629 19 6 16.3137 6 13C6 9.85467 8.42023 7.27461 11.5 7.02054V6ZM17 13C17 15.7614 14.7614 18 12 18C9.23858 18 7 15.7614 7 13C7 10.2386 9.23858 8 12 8C14.7614 8 17 10.2386 17 13ZM13.5307 9.30448C13.0454 9.10346 12.5253 9 12 9V13L16 13C16 12.4747 15.8965 11.9546 15.6955 11.4693C15.4945 10.984 15.1999 10.543 14.8284 10.1716C14.457 9.80014 14.016 9.5055 13.5307 9.30448Z" fill="black"/>
</svg>
