<svg width="32" height="32" viewBox="0 0 32 32" fill="none" xmlns="http://www.w3.org/2000/svg">
<path fill-rule="evenodd" clip-rule="evenodd" d="M23 16C23 19.866 19.866 23 16 23C12.134 23 9 19.866 9 16C9 12.134 12.134 9 16 9C19.866 9 23 12.134 23 16ZM24 16C24 20.4183 20.4183 24 16 24C11.5817 24 8 20.4183 8 16C8 11.5817 11.5817 8 16 8C20.4183 8 24 11.5817 24 16ZM15.3536 18.3536L19.8536 13.8536L19.1464 13.1464L15 17.2929L12.8536 15.1464L12.1464 15.8536L14.6464 18.3536L15 18.7071L15.3536 18.3536Z" fill="black"/>
</svg>
