<svg width="32" height="32" viewBox="0 0 32 32" fill="none" xmlns="http://www.w3.org/2000/svg">
<path fill-rule="evenodd" clip-rule="evenodd" d="M16 23C19.866 23 23 19.866 23 16C23 12.134 19.866 9 16 9C12.134 9 9 12.134 9 16C9 19.866 12.134 23 16 23ZM16 24C20.4183 24 24 20.4183 24 16C24 11.5817 20.4183 8 16 8C11.5817 8 8 11.5817 8 16C8 20.4183 11.5817 24 16 24ZM15.5 16V12H16.5V16H15.5ZM16.7 18.5C16.7 18.8866 16.3866 19.2 16 19.2C15.6134 19.2 15.3 18.8866 15.3 18.5C15.3 18.1134 15.6134 17.8 16 17.8C16.3866 17.8 16.7 18.1134 16.7 18.5Z" fill="#E01407"/>
</svg>
