<svg width="32" height="32" viewBox="0 0 32 32" fill="none" xmlns="http://www.w3.org/2000/svg">
<path fill-rule="evenodd" clip-rule="evenodd" d="M10.2889 13.1553C10.1013 13.7365 10 14.3564 10 15C10.5447 14.2737 11.1876 13.6226 11.9124 13.0665C13.1293 12.1327 14.5447 11.4914 16.0491 11.1921C17.5535 10.8929 19.1066 10.9437 20.5882 11.3407L20.847 10.3748C19.2172 9.93812 17.5089 9.88219 15.854 10.2114C14.1992 10.5405 12.6422 11.246 11.3036 12.2731C10.9468 12.5469 10.608 12.8416 10.2889 13.1553ZM14.0142 20.6636C14.0561 20.1663 14.1909 19.6802 14.4125 19.2308C14.6839 18.6806 15.0782 18.2001 15.565 17.8266C16.0517 17.4531 16.6179 17.1966 17.2196 17.0769C17.8214 16.9572 18.4426 16.9775 19.0353 17.1363L19.2941 16.1704C18.5533 15.9719 17.7768 15.9465 17.0245 16.0961C16.2723 16.2457 15.5646 16.5664 14.9562 17.0332C14.3477 17.5001 13.8548 18.1007 13.5156 18.7886C13.2906 19.2449 13.1372 19.7315 13.0595 20.2312C13.3624 20.4019 13.6816 20.547 14.0142 20.6636ZM11.3552 18.7984C11.4564 18.493 11.5788 18.1941 11.7219 17.904C12.1968 16.941 12.8868 16.1002 13.7387 15.4465C14.5905 14.7929 15.5813 14.344 16.6344 14.1345C17.6875 13.925 18.7746 13.9606 19.8117 14.2385L20.0706 13.2726C18.8853 12.955 17.6428 12.9143 16.4393 13.1537C15.2358 13.3931 14.1034 13.9062 13.1299 14.6532C12.1564 15.4002 11.3678 16.3611 10.825 17.4617C10.774 17.5652 10.7253 17.6696 10.6789 17.7749C10.8695 18.1398 11.0966 18.4825 11.3552 18.7984Z" fill="url(#paint0_linear)"/>
<path d="M18 21L20.9377 10.3867" stroke="black" stroke-width="1.5" stroke-linecap="round"/>
<circle cx="18" cy="21" r="2" fill="black"/>
<defs>
<linearGradient id="paint0_linear" x1="20" y1="14.5" x2="7.5" y2="21" gradientUnits="userSpaceOnUse">
<stop/>
<stop offset="0.692708" stop-opacity="0"/>
</linearGradient>
</defs>
</svg>
