<svg width="32" height="32" viewBox="0 0 32 32" fill="none" xmlns="http://www.w3.org/2000/svg">
<path d="M15.75 17.5L15.2197 18.0303L15.75 18.5607L16.2803 18.0303L15.75 17.5ZM12.7803 13.4697C12.4874 13.1768 12.0126 13.1768 11.7197 13.4697C11.4268 13.7626 11.4268 14.2374 11.7197 14.5303L12.7803 13.4697ZM19.7803 14.5303C20.0732 14.2374 20.0732 13.7626 19.7803 13.4697C19.4874 13.1768 19.0126 13.1768 18.7197 13.4697L19.7803 14.5303ZM16.5 10C16.5 9.58579 16.1642 9.25 15.75 9.25C15.3358 9.25 15 9.58579 15 10H16.5ZM16.2803 16.9697L12.7803 13.4697L11.7197 14.5303L15.2197 18.0303L16.2803 16.9697ZM16.2803 18.0303L19.7803 14.5303L18.7197 13.4697L15.2197 16.9697L16.2803 18.0303ZM15 10V17.5H16.5V10H15Z" fill="black"/>
<path d="M9.25 18.5V21.75H22.25V18.5" stroke="black" stroke-width="1.5" stroke-linecap="round" stroke-linejoin="round"/>
</svg>
