<svg width="32" height="32" viewBox="0 0 32 32" fill="none" xmlns="http://www.w3.org/2000/svg">
<path fill-rule="evenodd" clip-rule="evenodd" d="M14.5 10.5C14.5 10.2239 14.7239 10 15 10H17C17.2761 10 17.5 10.2239 17.5 10.5V11H14.5V10.5ZM13.5 11V10.5C13.5 9.67157 14.1716 9 15 9H17C17.8284 9 18.5 9.67157 18.5 10.5V11H21H22V12H21.4525L20.4975 21.5498L20.4525 22H20H12H11.5475L11.5025 21.5498L10.5475 12H10V11H11H13.5ZM11.5525 12L12.4525 21H19.5475L20.4475 12H11.5525ZM16 17.2071L17.6464 18.8536L18.3536 18.1464L16.7071 16.5L18.3536 14.8536L17.6464 14.1464L16 15.7929L14.3536 14.1464L13.6464 14.8536L15.2929 16.5L13.6464 18.1464L14.3536 18.8536L16 17.2071Z" fill="black"/>
</svg>
