<svg width="12" height="12" viewBox="0 0 12 12" fill="none" xmlns="http://www.w3.org/2000/svg">
<path fill-rule="evenodd" clip-rule="evenodd" d="M3.49993 2.25839C4.03103 1.90352 4.62909 1.66739 5.25345 1.56236C5.66192 1.49364 5.99999 1.16421 5.99999 0.750001V0.750001C5.99999 0.335787 5.66291 -0.00483079 5.25193 0.0468124C4.33031 0.162621 3.44456 0.491349 2.66657 1.01118C1.90595 1.51941 1.27468 2.19271 0.8173 2.9768C0.608592 3.33459 0.789696 3.77826 1.17071 3.94073V3.94073C1.55173 4.1032 1.98737 3.92143 2.2108 3.57265C2.54383 3.05279 2.98188 2.60454 3.49993 2.25839ZM1.90678 7.86966C1.73468 7.49289 1.32898 7.2516 0.928874 7.3588V7.3588C0.528777 7.46601 0.287012 7.87976 0.443266 8.26336C0.743566 9.00061 1.18908 9.67436 1.75735 10.2426C2.19423 10.6795 2.69344 11.0438 3.23592 11.3254C3.60356 11.5162 4.03776 11.3135 4.18125 10.9249V10.9249C4.32475 10.5363 4.12174 10.1102 3.76237 9.90423C3.41885 9.70736 3.101 9.46496 2.81801 9.18198C2.43645 8.80041 2.12867 8.35544 1.90678 7.86966ZM8.29609 11.5433C8.28519 11.5478 8.27427 11.5523 8.26335 11.5567C7.87974 11.713 7.466 11.4712 7.35879 11.0711L7.31714 10.9157C7.23294 10.6014 7.42151 10.282 7.72207 10.1575V10.1575C8.00519 10.0402 8.27415 9.89491 8.52532 9.72462C8.86815 9.49217 9.34015 9.49688 9.62625 9.79641V9.79641C9.91236 10.0959 9.90388 10.5751 9.57102 10.8216C9.17917 11.1118 8.75136 11.3547 8.29609 11.5433ZM10.4613 6.58892C10.4187 6.91144 10.6014 7.23294 10.9156 7.31714L11.0711 7.3588C11.4712 7.46601 11.8875 7.22859 11.9439 6.81824C11.9472 6.79487 11.9502 6.77147 11.9532 6.74805C12.0048 6.33707 11.6642 6 11.25 6H11.089C10.7637 6 10.5039 6.26639 10.4613 6.58892V6.58892Z" fill="black"/>
</svg>
